<?xml version="1.0" encoding="utf-8"?>
<!-- Generator: Adobe Illustrator 26.0.2, SVG Export Plug-In . SVG Version: 6.00 Build 0)  -->
<svg version="1.1" xmlns="http://www.w3.org/2000/svg" xmlns:xlink="http://www.w3.org/1999/xlink" x="0px" y="0px"
	 viewBox="0 0 1200 628" style="enable-background:new 0 0 1200 628;" xml:space="preserve">
<style type="text/css">
	.st0{fill:#FFFFFF;}
	.st1{fill:#2BB8FF;}
</style>
<g id="fondo">
</g>
<g id="Capa_1">
	<path d="M632.5,552.3L632.5,552.3c-4.2,0.2-7.6,3.6-7.7,7.8c0,0.1,0,0.1,0,0.2c-0.1,4.3,3.4,7.9,7.8,8c4.3,0.1,7.9-3.4,8-7.8V560
		C640.4,555.6,636.8,552.2,632.5,552.3z M632.6,563c-1.7,0-3-1.4-3-3c0-1.7,1.4-3,3-3h0.3c1.6,0.2,2.8,1.6,2.7,3.2
		C635.5,561.8,634.2,563,632.6,563z"/>
	<path d="M878.1,137.4L878.1,137.4c-4.2,0.2-7.6,3.6-7.7,7.8c0,0.1,0,0.1,0,0.2c-0.1,4.3,3.4,7.9,7.8,8c4.3,0.1,7.9-3.4,8-7.8v-0.5
		C886,140.8,882.4,137.3,878.1,137.4z M878.2,148.1c-1.7,0-3-1.4-3-3c0-1.7,1.4-3,3-3h0.3c1.6,0.2,2.8,1.6,2.7,3.2
		C881.1,146.9,879.8,148.1,878.2,148.1z"/>
	<path d="M1037.8,387c0-2.8-2.2-5.1-5-5.2c-2.8,0-5.1,2.2-5.2,5c0,2.8,2.2,5.1,5,5.2c0,0,0,0,0,0h0.1
		C1035.5,392,1037.8,389.8,1037.8,387z"/>
	<path d="M860.7,433.4l-3.6,5.7c0.6-0.1,1.2-0.2,1.7-0.4l4.1-2.7c2.1,0.6,3.4,2.6,5.7,3c-0.3-2.3-2.4-3.5-2.9-5.7
		c0.5-1.9,2.4-3.2,3-5.5c-1.4-0.1-2.1,0.8-3,1.4l-2.7,1.7l-5.4-3.3c0.3,1.8,0.3,1.8,1.2,3.1L860.7,433.4L860.7,433.4z"/>
	<path d="M1029.8,132.7l-3.6,5.7c0.6-0.1,1.2-0.2,1.7-0.4l4.1-2.7c2.1,0.6,3.4,2.6,5.7,3c-0.3-2.3-2.4-3.5-2.9-5.7
		c0.5-1.9,2.4-3.2,3-5.5c-1.4-0.1-2.1,0.8-3,1.4l-2.7,1.7l-5.4-3.3c0.3,1.8,0.3,1.8,1.2,3.1L1029.8,132.7L1029.8,132.7z"/>
	<path d="M1012.2,259.2c1-0.8,0.8-2.1,1.1-3.2c0.3-1.2,0.5-2.7,0.8-3.9l0.8-3.6c0.7-0.3,1.5-0.5,2.3-0.7l7.2-1.4
		c0.7-0.2,1.3-0.5,1.9-0.8c-1.7-1.5-3.7-1.2-5.4-1.7c-1.7-0.5-3.7-0.8-5.5-1.1c-1.7-3.5-1.2-7.6-2.8-11.2c-1.2,1.2-1.2,1.2-2,5.4
		c-0.2,1.9-0.7,3.7-1.2,5.4c-3.5,1.5-7.5,1-10.8,2.8c-0.1,0-0.1,0.2-0.1,0.5c1.6,1.1,3.5,1,5.3,1.4c1.8,0.4,3.7,0.8,5.5,1.1
		c0.3,0.8,0.5,1.6,0.7,2.3c0.5,2.3,0.8,4.6,1.3,6.8C1011.1,258,1011.1,258.9,1012.2,259.2L1012.2,259.2z"/>
	<path d="M558.3,242c1-0.8,0.8-2.1,1.1-3.2c0.3-1.2,0.5-2.7,0.8-3.9l0.8-3.6c0.7-0.3,1.5-0.5,2.3-0.7l7.2-1.4
		c0.7-0.2,1.3-0.5,1.9-0.8c-1.7-1.5-3.7-1.2-5.4-1.7c-1.7-0.5-3.7-0.8-5.5-1.1c-1.7-3.5-1.2-7.6-2.8-11.2c-1.2,1.2-1.2,1.2-2,5.4
		c-0.2,1.9-0.7,3.7-1.2,5.4c-3.5,1.5-7.5,1-10.8,2.8c-0.1,0-0.1,0.2-0.1,0.5c1.6,1.1,3.5,1,5.3,1.4s3.7,0.8,5.5,1.1
		c0.3,0.8,0.5,1.6,0.7,2.3c0.5,2.3,0.8,4.6,1.3,6.8C557.3,240.9,557.3,241.7,558.3,242L558.3,242z"/>
	<path d="M536.3,505.1l-3.6,5.7c0.6-0.1,1.2-0.2,1.7-0.4l4.1-2.7c2.1,0.6,3.5,2.6,5.7,3c-0.3-2.3-2.4-3.5-2.9-5.7
		c0.5-1.9,2.4-3.2,3-5.5c-1.4-0.1-2.1,0.8-3,1.4l-2.6,1.7l-5.4-3.3c0.3,1.8,0.3,1.8,1.2,3.1L536.3,505.1L536.3,505.1z"/>
	<path d="M769.1,556c-1.2,0.1-2.1,1.1-2,2.3c0.1,1.1,0.9,2,2,2c1.2-0.1,2.1-1.1,2-2.3C771,556.9,770.1,556,769.1,556z"/>
	<path d="M474.4,545.8c-1,0.1-1.7,0.9-1.6,1.8c0,0.9,0.8,1.6,1.6,1.6c1-0.1,1.7-0.9,1.6-1.8C476,546.5,475.3,545.8,474.4,545.8z"/>
	<path d="M741.3,170c-2.8,0-5.1,2.2-5.2,5c0,2.8,2.2,5.1,5,5.2c2.8,0,5.1-2.2,5.2-5c0,0,0,0,0,0v-0.1
		C746.2,172.4,744,170.1,741.3,170z"/>
	<path d="M891,295c-2.8,0-5.1,2.2-5.2,5c0,2.8,2.2,5.1,5,5.2c2.8,0,5.1-2.2,5.2-5c0,0,0,0,0,0v-0.1C896,297.3,893.8,295.1,891,295z"
		/>
	<path d="M677.7,408.9c-2.8,0-5.1,2.2-5.2,5c0,2.8,2.2,5.1,5,5.2c2.8,0,5.1-2.2,5.2-5V414C682.7,411.2,680.5,409,677.7,408.9z"/>
	<path d="M914.9,584.9c-2.8,0-5.1,2.2-5.2,5c0,2.8,2.2,5.1,5,5.2c2.8,0,5.1-2.2,5.2-5V590C919.9,587.2,917.6,585,914.9,584.9z"/>
	<path d="M587.9,113.6c-1.1-0.1-2.1,0.8-2.2,1.9s0.8,2.1,1.9,2.2c1.1,0.1,2.1-0.8,2.2-1.9l0,0C589.9,114.7,589,113.7,587.9,113.6z"
		/>
	<path d="M725.7,65.9c-1.1-0.1-2.1,0.8-2.2,1.9s0.8,2.1,1.9,2.2c1.1,0.1,2.1-0.8,2.2-1.9l0,0C727.7,67,726.8,66,725.7,65.9z"/>
	<path d="M666.8,258.5c-1.1-0.1-2.1,0.8-2.2,1.9c-0.1,1.1,0.8,2.1,1.9,2.2c1.1,0.1,2.1-0.8,2.2-1.9l0,0
		C668.8,259.5,667.9,258.5,666.8,258.5z"/>
	<path d="M746.4,305c-1.1-0.1-2.1,0.8-2.2,1.9c-0.1,1.1,0.8,2.1,1.9,2.2c1.1,0.1,2.1-0.8,2.2-1.9l0,0
		C748.4,306.1,747.6,305.1,746.4,305z"/>
	<path d="M1119.1,235.2c-1.1-0.1-2.1,0.8-2.2,1.9s0.8,2.1,1.9,2.2c1.1,0.1,2.1-0.8,2.2-1.9l0,0
		C1121.1,236.3,1120.3,235.3,1119.1,235.2z"/>
	<g id="Capa_1_00000054248826923869499170000016953840926833154716_">
		<g>
			<path class="st0" d="M502.9,431l-354.5,79.7c-8.1,1.8-15.6-3.4-17.3-10.9l-79.8-355c-1.8-8.1,3.4-15.6,10.9-17.3l354.5-79.7
				c8.1-1.8,15.6,3.4,17.3,10.9l79.7,354.5C515.5,421.3,510.9,429.2,502.9,431z"/>
			<path d="M503.8,435l-354.5,79.7c-10.1,2.3-20.6-4.4-22.9-14.5L46.7,145.8c-2.3-10.1,4.4-20.6,14.5-22.9l354.5-79.7
				c10.1-2.3,20.6,4.4,22.9,14.5l79.7,354.5C520.6,422.8,514.4,432.7,503.8,435z M63.2,132c-5.5,1.2-8.6,6.7-7.4,11.7l79.7,354.5
				c1.2,5.5,6.7,8.6,11.7,7.4L501.7,426c5.5-1.2,8.6-6.7,7.4-11.7L429.5,59.7c-1.2-5.5-6.7-8.6-11.7-7.4L63.2,132z"/>
		</g>
		<g>
			<rect x="66.5" y="186.3" transform="matrix(0.9757 -0.2193 0.2193 0.9757 -35.4718 62.3179)" width="392.8" height="9.3"/>
		</g>
		<g>
			<path d="M216.9,339.5l-76.1,17.1c-2,0.5-4.4-0.6-4.9-3.1l-17.1-76.1c-0.5-2,0.6-4.4,3.1-4.9l76.1-17.1c2-0.5,4.4,0.6,4.9,3.1
				l17.1,76.1C220.5,336.6,218.9,339.1,216.9,339.5z M142.9,347.7l68.1-15.3l-15.3-68.1l-68.1,15.3L142.9,347.7z"/>
		</g>
		<g>
			
				<rect x="246.3" y="240.9" transform="matrix(0.9757 -0.2193 0.2193 0.9757 -54.4475 69.3964)" class="st1" width="78" height="78"/>
			<path d="M332.9,313.5l-76.1,17.1c-2,0.5-4.4-0.6-4.9-3.1l-17.1-76.1c-0.5-2,0.6-4.4,3.1-4.9l76.1-17.1c2-0.5,4.4,0.6,4.9,3.1
				l17.1,76.1C336.4,310.5,335.4,312.9,332.9,313.5z M258.9,321.6l68.1-15.3l-15.3-68.1l-68.1,15.3L258.9,321.6z"/>
		</g>
		<g>
			<path d="M449.4,287.3l-76.1,17.1c-2,0.5-4.4-0.6-4.9-3.1l-17.1-76.1c-0.5-2,0.6-4.4,3.1-4.9l76.1-17.1c2-0.5,4.4,0.6,4.9,3.1
				l17.1,76.1C452.4,284.5,451.4,286.8,449.4,287.3z M375.4,295.4l68.1-15.3L428.2,212l-68.1,15.3L375.4,295.4z"/>
		</g>
		<g>
			<path d="M241.2,448l-76.1,17.1c-2,0.5-4.4-0.6-4.9-3.1l-17-75.6c-0.5-2,0.6-4.4,3.1-4.9l76.1-17.1c2-0.5,4.4,0.6,4.9,3.1
				l17.1,76.1C244.9,445.5,243.3,447.5,241.2,448z M167.4,456.6l68.1-15.3l-15.3-68.1l-68.1,15.3L167.4,456.6z"/>
		</g>
		<g>
			<path d="M357.2,421.9L281.1,439c-2,0.5-4.4-0.6-4.9-3.1l-17-75.6c-0.5-2,0.6-4.4,3.1-4.9l76.1-17.1c2-0.5,4.4,0.6,4.9,3.1
				l17.1,76.1C360.9,419.5,359.8,421.3,357.2,421.9z M283.4,430.5l68.1-15.3l-15.3-68.1l-68.1,15.3L283.4,430.5z"/>
		</g>
		<g>
			
				<rect x="387.3" y="323.6" transform="matrix(0.9757 -0.2193 0.2193 0.9757 -69.162 102.3323)" class="st1" width="78" height="78"/>
			<path d="M473.7,395.7l-76.1,17.1c-2,0.5-4.4-0.6-4.9-3.1l-17-75.6c-0.5-2,0.6-4.4,3.1-4.9l76.1-17.1c2-0.5,4.4,0.6,4.9,3.1
				l17.1,76.1C476.9,393.4,475.7,395.2,473.7,395.7z M399.9,404.3L468,389L452.7,321l-68.1,15.3L399.9,404.3z"/>
		</g>
		<g>
			<g>
				<path d="M150.2,168c-5,1.1-10.5-1.9-11.7-7.4l-12.7-56.5c-1.1-5,1.9-10.5,7.4-11.7c5.5-1.2,10.5,1.9,11.7,7.4l12.7,56.5
					C158.8,161.3,155.3,166.9,150.2,168z"/>
			</g>
			<g>
				<path d="M153,180.1c-11.1,2.5-21.7-4.7-24.1-15.2c-2.4-10.6,4.7-21.7,15.2-24.1c10.6-2.4,22.1,4,24.6,15.1
					C171.2,167,164.1,177.6,153,180.1z M145.8,148.4c-6.6,1.5-10.9,8.3-9.4,14.8c1.5,6.6,8.3,10.9,14.8,9.4s10.9-8.3,9.4-14.8
					C159.2,151.2,152.4,146.9,145.8,148.4z"/>
			</g>
		</g>
		<g>
			<g>
				<path d="M255.1,144.5c-5,1.1-10.5-1.9-11.7-7.4l-12.7-56.5c-1.1-5,1.9-10.5,7.4-11.7s10.5,1.9,11.7,7.4l12.7,56.5
					C263.2,137.9,260.2,143.3,255.1,144.5z"/>
			</g>
			<g>
				<path d="M257.9,156.6c-11.1,2.5-21.7-4.7-24.1-15.2c-2.4-10.6,4.7-21.7,15.2-24.1c11.1-2.5,21.7,4.7,24.1,15.2
					S269,154.1,257.9,156.6z M250.7,124.8c-6.6,1.5-10.9,8.3-9.4,14.8c1.5,6.6,8.3,10.9,14.8,9.4c6.6-1.5,10.9-8.3,9.4-14.8
					C264.1,127.6,257.3,123.3,250.7,124.8z"/>
			</g>
		</g>
		<g>
			<g>
				<path d="M359.5,121c-5,1.1-10.5-1.9-11.7-7.4l-12.7-56.5c-1.1-5,1.9-10.5,7.4-11.7c5-1.1,10.5,1.9,11.7,7.4l12.7,56.5
					C368.1,114.3,365.1,119.7,359.5,121z"/>
			</g>
			<g>
				<path d="M362.2,133.1c-11.1,2.5-21.7-4.7-24.1-15.2c-2.4-10.6,4.7-21.7,15.2-24.1c11.1-2.5,21.7,4.7,24.1,15.2
					S373.3,130.6,362.2,133.1z M355.1,101.3c-6.6,1.5-10.9,8.3-9.4,14.8s8.3,10.9,14.8,9.4c6.6-1.5,10.9-8.3,9.4-14.8
					S362.2,99.7,355.1,101.3z"/>
			</g>
		</g>
		<g>
			<path d="M294.2,304.1c-1,0.2-2.1-0.1-2.7-0.4l-30-18.1c-1.9-1.2-2.4-3.7-1.2-5.5c1.2-1.9,3.7-2.4,5.5-1.2l27,16.2l39-59.6
				c1.2-1.9,3.7-2.4,5.5-1.2c1.9,1.2,2.4,3.7,1.2,5.5L297,302.5C296.1,303.2,295.2,303.9,294.2,304.1z"/>
		</g>
		<g>
			<path d="M433.9,388.2c-1,0.2-2.1-0.1-2.7-0.4l-30-18.1c-1.9-1.2-2.4-3.7-1.2-5.5c1.2-1.9,3.7-2.4,5.5-1.2l27,16.2l39-59.6
				c1.2-1.9,3.7-2.4,5.5-1.2c1.9,1.2,2.4,3.7,1.2,5.5l-42,63C435.9,387.8,434.9,388,433.9,388.2z"/>
		</g>
	</g>
	<g id="Capa_8">
	</g>
</g>
<g id="Capa_3">
</g>
</svg>
